<svg width="32" height="32" viewBox="0 0 32 32" fill="none" xmlns="http://www.w3.org/2000/svg">
<path d="M10.7865 15.5065H4.53317C4.63984 9.27988 5.8665 8.25321 9.69317 5.98655C10.1332 5.71988 10.2798 5.15988 10.0132 4.70655C9.75984 4.26655 9.1865 4.11988 8.7465 4.38655C4.23984 7.05321 2.6665 8.67988 2.6665 16.4265V23.6132C2.6665 25.8932 4.51984 27.7332 6.7865 27.7332H10.7865C13.1332 27.7332 14.9065 25.9599 14.9065 23.6132V19.6132C14.9065 17.2799 13.1332 15.5065 10.7865 15.5065Z" fill="url(#paint0_linear_29_1087)"/>
<path d="M25.2129 15.5065H18.9596C19.0663 9.27988 20.2929 8.25321 24.1196 5.98655C24.5596 5.71988 24.7063 5.15988 24.4396 4.70655C24.1729 4.26655 23.6129 4.11988 23.1596 4.38655C18.6529 7.05321 17.0796 8.67988 17.0796 16.4399V23.6265C17.0796 25.9065 18.9329 27.7465 21.1996 27.7465H25.1996C27.5463 27.7465 29.3196 25.9732 29.3196 23.6265V19.6265C29.3329 17.2799 27.5596 15.5065 25.2129 15.5065Z" fill="url(#paint1_linear_29_1087)"/>
<defs>
<linearGradient id="paint0_linear_29_1087" x1="16.7647" y1="174.701" x2="-14.8267" y2="173.396" gradientUnits="userSpaceOnUse">
<stop offset="0.25249" stop-color="#40B4A6"/>
<stop offset="0.637527" stop-color="#A6D8D2"/>
</linearGradient>
<linearGradient id="paint1_linear_29_1087" x1="31.1779" y1="174.798" x2="-0.413784" y2="173.494" gradientUnits="userSpaceOnUse">
<stop offset="0.25249" stop-color="#40B4A6"/>
<stop offset="0.637527" stop-color="#A6D8D2"/>
</linearGradient>
</defs>
</svg>
