<svg width="24" height="24" viewBox="0 0 24 24" fill="none" xmlns="http://www.w3.org/2000/svg">
<path fill-rule="evenodd" clip-rule="evenodd" d="M18.4405 8.08276C10.8253 12.6992 9.54254 13.248 6.54511 10.5379C7.28837 13.1276 6.94879 15.0111 5.56348 16.9375C8.99218 15.8925 9.61766 16.8472 11.3581 18.0421C10.2868 14.6599 11.7892 13.547 18.4405 8.08276Z" stroke="#FFB23F" stroke-width="2" stroke-miterlimit="1.5" stroke-linecap="round" stroke-linejoin="round"/>
<path d="M15.5823 14.9602C15.691 15.3155 15.7342 15.6927 15.8041 16.057" stroke="#FFB23F" stroke-width="2" stroke-miterlimit="1.5" stroke-linecap="round" stroke-linejoin="round"/>
<path d="M14.1501 17.2501C14.4323 17.2068 14.7173 17.1266 14.9962 17.0615" stroke="#FFB23F" stroke-width="2" stroke-miterlimit="1.5" stroke-linecap="round" stroke-linejoin="round"/>
<path d="M16.1465 17.7283C16.1456 18.0772 16.2081 18.5283 16.3178 18.8648" stroke="#FFB23F" stroke-width="2" stroke-miterlimit="1.5" stroke-linecap="round" stroke-linejoin="round"/>
<path d="M17.0469 16.7229C17.4232 16.7533 17.8195 16.6016 18.1955 16.5547" stroke="#FFB23F" stroke-width="2" stroke-miterlimit="1.5" stroke-linecap="round" stroke-linejoin="round"/>
<path d="M8.74829 5.03564C8.78899 5.43416 8.85653 5.82769 8.93564 6.21974" stroke="#FFB23F" stroke-width="2" stroke-miterlimit="1.5" stroke-linecap="round" stroke-linejoin="round"/>
<path d="M7.18237 7.27082C7.48059 7.24412 7.7662 7.20709 8.05986 7.15356" stroke="#FFB23F" stroke-width="2" stroke-miterlimit="1.5" stroke-linecap="round" stroke-linejoin="round"/>
<path d="M9.25098 7.87256C9.25718 8.24533 9.33146 8.64156 9.40707 9.00814" stroke="#FFB23F" stroke-width="2" stroke-miterlimit="1.5" stroke-linecap="round" stroke-linejoin="round"/>
<path d="M10.1934 6.85197C10.5328 6.76734 10.8469 6.65297 11.1981 6.61279" stroke="#FFB23F" stroke-width="2" stroke-miterlimit="1.5" stroke-linecap="round" stroke-linejoin="round"/>
</svg>
